<?xml version="1.0" encoding="UTF-8"?>
<!DOCTYPE svg PUBLIC "-//W3C//DTD SVG 1.1//EN" "http://www.w3.org/Graphics/SVG/1.1/DTD/svg11.dtd">
<svg version="1.1" xmlns="http://www.w3.org/2000/svg" xmlns:xlink="http://www.w3.org/1999/xlink" x="0" y="0" width="512" height="512" viewBox="0, 0, 512, 512">
  <g id="Layer_1">
    <path d="M450.25,344.8 L450.25,56.2 C450.25,42.325 441.925,34 428.05,34 L145,34 C97.825,34 61.75,70.075 61.75,117.25 L61.75,394.75 C61.75,441.925 97.825,478 145,478 L428.05,478 C439.15,478 450.25,469.675 450.25,455.8 L450.25,441.925 C450.25,436.375 447.475,430.825 441.925,425.275 C439.15,411.4 439.15,372.55 441.925,361.45 C447.475,358.675 450.25,353.125 450.25,344.8 z M186.625,158.875 C186.625,151.209 192.834,145 200.5,145 L242.125,145 L242.125,103.375 C242.125,95.709 248.334,89.5 256,89.5 L283.75,89.5 C291.416,89.5 297.625,95.709 297.625,103.375 L297.625,145 L339.25,145 C346.916,145 353.125,151.209 353.125,158.875 L353.125,186.625 C353.125,194.291 346.916,200.5 339.25,200.5 L297.625,200.5 L297.625,297.625 C297.625,305.291 291.416,311.5 283.75,311.5 L256,311.5 C248.334,311.5 242.125,305.291 242.125,297.625 L242.125,200.5 L200.5,200.5 C192.834,200.5 186.625,194.291 186.625,186.625 L186.625,158.875 z M391.975,422.5 L145,422.5 C128.35,422.5 117.25,411.4 117.25,394.75 C117.25,378.1 131.125,367 145,367 L391.975,367 L391.975,422.5 z" fill="#E0342F"/>
  </g>
</svg>
